/* XPM */
static char * comes_logo_xpm[] = {
"48 48 632 2",
"  	c #101210",
". 	c #0F130D",
"+ 	c #0C1507",
"@ 	c #081701",
"# 	c #071700",
"$ 	c #061500",
"% 	c #061300",
"& 	c #061000",
"* 	c #050E00",
"= 	c #061100",
"- 	c #081501",
"; 	c #091901",
"> 	c #0A1C01",
", 	c #0A1B00",
"' 	c #091800",
") 	c #081500",
"! 	c #071300",
"~ 	c #071500",
"{ 	c #081900",
"] 	c #091D00",
"^ 	c #0B2100",
"/ 	c #0D2400",
"( 	c #0F2700",
"_ 	c #102900",
": 	c #102A01",
"< 	c #102B00",
"[ 	c #102C00",
"} 	c #0F2B00",
"| 	c #0E2709",
"1 	c #0C221B",
"2 	c #0A1C27",
"3 	c #081627",
"4 	c #07121A",
"5 	c #071208",
"6 	c #071400",
"7 	c #091A00",
"8 	c #0C2100",
"9 	c #0F2901",
"0 	c #112F01",
"a 	c #133300",
"b 	c #133400",
"c 	c #123200",
"d 	c #112F00",
"e 	c #0E1316",
"f 	c #0E1612",
"g 	c #0E1D09",
"h 	c #0C2301",
"i 	c #0C2400",
"j 	c #0B2200",
"k 	c #0B1F00",
"l 	c #0A1C00",
"m 	c #091B00",
"n 	c #0D2501",
"o 	c #0F2A01",
"p 	c #102C01",
"q 	c #102A00",
"r 	c #0E2700",
"s 	c #0D2300",
"t 	c #102F00",
"u 	c #143700",
"v 	c #153800",
"w 	c #153901",
"x 	c #153B00",
"y 	c #163D00",
"z 	c #163E00",
"A 	c #153A06",
"B 	c #133513",
"C 	c #112E1B",
"D 	c #0E271B",
"E 	c #0D2312",
"F 	c #0C2205",
"G 	c #0E2800",
"H 	c #112E00",
"I 	c #143601",
"J 	c #163D01",
"K 	c #184200",
"L 	c #184300",
"M 	c #173F00",
"N 	c #163C00",
"O 	c #0B141D",
"P 	c #0C1A18",
"Q 	c #0F260C",
"R 	c #113001",
"S 	c #123300",
"T 	c #113000",
"U 	c #0F2801",
"V 	c #0E2A00",
"W 	c #133601",
"X 	c #163C01",
"Y 	c #173F01",
"Z 	c #133600",
"` 	c #163B00",
" .	c #194500",
"..	c #194600",
"+.	c #1A4700",
"@.	c #1A4800",
"#.	c #1A4900",
"$.	c #1B4B00",
"%.	c #1B4E00",
"&.	c #1D5000",
"*.	c #1D5100",
"=.	c #1C4E03",
"-.	c #1A4909",
";.	c #18420D",
">.	c #153B0D",
",.	c #143609",
"'.	c #133403",
").	c #143800",
"!.	c #1B4C00",
"~.	c #1E5300",
"{.	c #1F5500",
"].	c #1E5400",
"^.	c #1C4E00",
"/.	c #081522",
"(.	c #0A1C1C",
"_.	c #102C0E",
":.	c #173E00",
"<.	c #143600",
"[.	c #133301",
"}.	c #133700",
"|.	c #153D00",
"1.	c #194501",
"2.	c #1B4C01",
"3.	c #1C4E01",
"4.	c #194700",
"5.	c #194800",
"6.	c #1C4D00",
"7.	c #1E5200",
"8.	c #1F5300",
"9.	c #1E5100",
"0.	c #1D5200",
"a.	c #1F5800",
"b.	c #215B00",
"c.	c #225D00",
"d.	c #225C00",
"e.	c #205802",
"f.	c #1E5302",
"g.	c #1C4E02",
"h.	c #1B4A02",
"i.	c #205800",
"j.	c #235F00",
"k.	c #246200",
"l.	c #236200",
"m.	c #226000",
"n.	c #215D00",
"o.	c #071422",
"p.	c #091C1C",
"q.	c #0F2C0E",
"r.	c #153C01",
"s.	c #184100",
"t.	c #153A00",
"u.	c #143801",
"v.	c #174300",
"w.	c #1B4B01",
"x.	c #1E5201",
"y.	c #1F5601",
"z.	c #1F5400",
"A.	c #1E5500",
"B.	c #1F5600",
"C.	c #215900",
"D.	c #215A00",
"E.	c #205700",
"F.	c #1C4F00",
"G.	c #1E5600",
"H.	c #205B00",
"I.	c #225E00",
"J.	c #236000",
"K.	c #235E00",
"L.	c #205900",
"M.	c #215C00",
"N.	c #246300",
"O.	c #266600",
"P.	c #266700",
"Q.	c #256600",
"R.	c #246400",
"S.	c #06131F",
"T.	c #08191A",
"U.	c #0E290D",
"V.	c #133801",
"W.	c #153900",
"X.	c #143701",
"Y.	c #143900",
"Z.	c #1B4A01",
"`.	c #1E5101",
" +	c #1F5401",
".+	c #1F5501",
"++	c #1F5700",
"@+	c #205A00",
"#+	c #1B4A00",
"$+	c #1A4A00",
"%+	c #236300",
"&+	c #205601",
"*+	c #215701",
"=+	c #235F01",
"-+	c #256301",
";+	c #256501",
">+	c #05111A",
",+	c #071716",
"'+	c #0C250B",
")+	c #113301",
"!+	c #133500",
"~+	c #123301",
"{+	c #133900",
"]+	c #153E00",
"^+	c #1C4C01",
"/+	c #1D5300",
"(+	c #174200",
"_+	c #163F00",
":+	c #1C4C00",
"<+	c #1F5200",
"[+	c #225A00",
"}+	c #236100",
"|+	c #1E5301",
"1+	c #1D5001",
"2+	c #1F5201",
"3+	c #215901",
"4+	c #235D01",
"5+	c #050F17",
"6+	c #071513",
"7+	c #0C230A",
"8+	c #113201",
"9+	c #184201",
"0+	c #1E5001",
"a+	c #184400",
"b+	c #174100",
"c+	c #113100",
"d+	c #0D2500",
"e+	c #0B2000",
"f+	c #0C2200",
"g+	c #102D00",
"h+	c #163B01",
"i+	c #1A4401",
"j+	c #1D4E01",
"k+	c #1C4D01",
"l+	c #235B01",
"m+	c #225C01",
"n+	c #040D14",
"o+	c #071411",
"p+	c #0D2409",
"q+	c #133401",
"r+	c #102F01",
"s+	c #184000",
"t+	c #1D4F00",
"u+	c #0A1D00",
"v+	c #081700",
"w+	c #081600",
"x+	c #0A1A00",
"y+	c #0C2001",
"z+	c #1A4801",
"A+	c #030C13",
"B+	c #061410",
"C+	c #0E2508",
"D+	c #0F2A00",
"E+	c #133200",
"F+	c #173D00",
"G+	c #0E2B00",
"H+	c #0A1F00",
"I+	c #051000",
"J+	c #040D00",
"K+	c #050F00",
"L+	c #071600",
"M+	c #081800",
"N+	c #071200",
"O+	c #060F00",
"P+	c #050C00",
"Q+	c #040B00",
"R+	c #050D00",
"S+	c #0E2400",
"T+	c #205801",
"U+	c #215B01",
"V+	c #030A11",
"W+	c #06120E",
"X+	c #0E2407",
"Y+	c #143501",
"Z+	c #102D01",
"`+	c #0F2800",
" @	c #112D00",
".@	c #174000",
"+@	c #040C00",
"@@	c #040E00",
"#@	c #0D2600",
"$@	c #0E2900",
"%@	c #081400",
"&@	c #060E00",
"*@	c #040A00",
"=@	c #081300",
"-@	c #0B1C00",
";@	c #164000",
">@	c #1D5101",
",@	c #1C4F01",
"'@	c #194400",
")@	c #02080F",
"!@	c #050F0C",
"~@	c #0C2106",
"{@	c #123101",
"]@	c #102E01",
"^@	c #0F2900",
"/@	c #0E2600",
"(@	c #091900",
"_@	c #102E00",
":@	c #123400",
"<@	c #184600",
"[@	c #0D2200",
"}@	c #0B1E00",
"|@	c #02060C",
"1@	c #040E0A",
"2@	c #0B1E05",
"3@	c #143500",
"4@	c #091600",
"5@	c #030900",
"6@	c #0E2500",
"7@	c #123100",
"8@	c #1A4500",
"9@	c #020607",
"0@	c #040D06",
"a@	c #0A1D03",
"b@	c #113200",
"c@	c #0F2C00",
"d@	c #091700",
"e@	c #010500",
"f@	c #020800",
"g@	c #266A00",
"h@	c #276E00",
"i@	c #297300",
"j@	c #2A7700",
"k@	c #2B7700",
"l@	c #276C00",
"m@	c #0B1D00",
"n@	c #020701",
"o@	c #050E01",
"p@	c #0A1E00",
"q@	c #1A4600",
"r@	c #030700",
"s@	c #020600",
"t@	c #266800",
"u@	c #286C00",
"v@	c #297000",
"w@	c #2A7500",
"x@	c #2B7800",
"y@	c #2C7A00",
"z@	c #2C7B00",
"A@	c #286D01",
"B@	c #246401",
"C@	c #225D01",
"D@	c #0C2000",
"E@	c #256500",
"F@	c #287000",
"G@	c #2A7200",
"H@	c #2A7100",
"I@	c #297400",
"J@	c #297100",
"K@	c #276D00",
"L@	c #256700",
"M@	c #1E5401",
"N@	c #1B4D00",
"O@	c #143A00",
"P@	c #030A02",
"Q@	c #061202",
"R@	c #0C2401",
"S@	c #2C7700",
"T@	c #286D00",
"U@	c #246500",
"V@	c #226100",
"W@	c #1B4801",
"X@	c #184401",
"Y@	c #184301",
"Z@	c #174400",
"`@	c #153C00",
" #	c #184500",
".#	c #040C0C",
"+#	c #07130A",
"@#	c #0D2705",
"##	c #266701",
"$#	c #266A01",
"%#	c #123000",
"&#	c #266900",
"*#	c #2E7D00",
"=#	c #2C7900",
"-#	c #296F00",
";#	c #256400",
">#	c #123001",
",#	c #112E01",
"'#	c #1D5201",
")#	c #040E17",
"!#	c #0F2A0A",
"~#	c #184101",
"{#	c #256701",
"]#	c #286B00",
"^#	c #2D7A00",
"/#	c #2A7400",
"(#	c #1C5100",
"_#	c #236001",
":#	c #246201",
"<#	c #246101",
"[#	c #081916",
"}#	c #102E0B",
"|#	c #194601",
"1#	c #256401",
"2#	c #205600",
"3#	c #0C1F00",
"4#	c #040900",
"5#	c #020500",
"6#	c #1B4900",
"7#	c #276B01",
"8#	c #286C01",
"9#	c #276A00",
"0#	c #061514",
"a#	c #091D11",
"b#	c #123308",
"c#	c #1C4B01",
"d#	c #276B00",
"e#	c #286E00",
"f#	c #0C2300",
"g#	c #071000",
"h#	c #1C4B00",
"i#	c #297201",
"j#	c #2A7401",
"k#	c #2A7301",
"l#	c #297200",
"m#	c #081909",
"n#	c #0B2207",
"o#	c #143804",
"p#	c #1D4E00",
"q#	c #276900",
"r#	c #0E2501",
"s#	c #2A7300",
"t#	c #2B7500",
"u#	c #2B7600",
"v#	c #091C00",
"w#	c #0C2500",
"x#	c #194300",
"y#	c #246100",
"z#	c #163A00",
"A#	c #0E2601",
"B#	c #225F00",
"C#	c #225B00",
"D#	c #030A00",
"E#	c #0E2801",
"F#	c #163E01",
"G#	c #286F00",
"H#	c #215C01",
"I#	c #194401",
"J#	c #287100",
"K#	c #297101",
"L#	c #1F5701",
"M#	c #1B4901",
"N#	c #173E01",
"O#	c #174101",
"P#	c #133100",
"Q#	c #194200",
"R#	c #2B7200",
"S#	c #286E01",
"T#	c #0B1B01",
"U#	c #0D2301",
"V#	c #1D4D01",
"W#	c #1A4501",
"X#	c #163A01",
"Y#	c #030B00",
"Z#	c #091A01",
"`#	c #174001",
" $	c #1A4901",
".$	c #0C1E00",
"+$	c #143300",
"@$	c #2C7800",
"#$	c #2E7C00",
"$$	c #183F00",
"%$	c #0D2100",
"&$	c #266801",
"*$	c #246301",
"=$	c #2E7F00",
"-$	c #318400",
";$	c #1A4300",
">$	c #0E2200",
",$	c #112C01",
"'$	c #2A7000",
")$	c #0A1900",
"!$	c #050B00",
"~$	c #2D7C00",
"{$	c #2F8100",
"]$	c #194100",
"^$	c #0E2300",
"/$	c #122E01",
"($	c #205701",
"_$	c #122F00",
":$	c #256800",
"<$	c #0F2600",
"[$	c #133201",
"}$	c #276800",
"|$	c #091500",
"1$	c #040800",
"2$	c #010300",
"3$	c #1E5000",
"4$	c #246001",
"5$	c #246000",
"6$	c #061200",
"7$	c #010100",
"8$	c #020700",
"9$	c #0D2800",
"0$	c #215800",
"a$	c #030800",
"b$	c #0D2700",
"c$	c #103000",
"d$	c #1C5000",
"e$	c #256300",
"f$	c #205500",
"g$	c #020300",
"h$	c #020400",
"i$	c #1B4700",
"j$	c #133800",
"k$	c #0F2D00",
"l$	c #030600",
"m$	c #143B00",
"n$	c #153700",
"o$	c #050A00",
"p$	c #1A4B00",
"q$	c #1C4D02",
"r$	c #215801",
"s$	c #174201",
"t$	c #163F01",
"u$	c #235C02",
"v$	c #133501",
"w$	c #1A4601",
"x$	c #194801",
"y$	c #235D00",
"z$	c #000400",
"A$	c #183E00",
"B$	c #1B4800",
"C$	c #0E2A01",
"D$	c #153801",
"E$	c #173C00",
"F$	c #0B2101",
"G$	c #0F2B01",
"H$	c #122E00",
"I$	c #0B1B00",
"J$	c #061400",
"K$	c #091801",
"L$	c #0F2903",
"M$	c #153C05",
"N$	c #194805",
"O$	c #1B4C03",
"P$	c #010400",
"Q$	c #010200",
"R$	c #030500",
"S$	c #0D1F00",
"T$	c #153A01",
"U$	c #153C03",
"V$	c #143904",
"W$	c #123404",
"X$	c #0F2D04",
"Y$	c #0D2604",
"Z$	c #060F06",
"`$	c #0B1F15",
" %	c #113120",
".%	c #16401D",
"+%	c #194810",
"@%	c #1B4A03",
"#%	c #081200",
"$%	c #060D00",
"%%	c #071501",
"&%	c #0A1B01",
"*%	c #123309",
"=%	c #123312",
"-%	c #112F19",
";%	c #0F2A1B",
">%	c #0C241A",
",%	c #0B1F18",
"'%	c #03080C",
")%	c #071627",
"!%	c #0E293A",
"~%	c #143A35",
"{%	c #19461E",
"]%	c #1C4C05",
"^%	c #143402",
"/%	c #051100",
"(%	c #0D2502",
"_%	c #102D02",
":%	c #112E03",
"<%	c #102C11",
"[%	c #0F2821",
"}%	c #0D242D",
"|%	c #0B2032",
"1%	c #0A1D30",
"2%	c #091B2C",
"3%	c #000000",
"4%	c #02050E",
"5%	c #06132C",
"6%	c #0D253F",
"7%	c #14383A",
"8%	c #194521",
"9%	c #1D4D06",
"0%	c #143502",
"a%	c #071100",
"b%	c #133502",
"c%	c #143A02",
"d%	c #102C03",
"e%	c #0E2513",
"f%	c #0C2025",
"g%	c #0B1D31",
"h%	c #0A1C36",
"i%	c #0A1C34",
"j%	c #0A1E30",
"k%	c #000104",
"l%	c #071420",
"m%	c #0E262C",
"n%	c #153828",
"o%	c #194516",
"p%	c #1C4B04",
"q%	c #123500",
"r%	c #123600",
"s%	c #143B01",
"t%	c #0F2902",
"u%	c #0D210D",
"v%	c #0A1C19",
"w%	c #0A1B22",
"x%	c #0A1E25",
"y%	c #0D2324",
"z%	c #0E2921",
"A%	c #010407",
"B%	c #030A09",
"C%	c #09190D",
"D%	c #0F2B0E",
"E%	c #194507",
"F%	c #0C1F04",
"G%	c #0A1B08",
"H%	c #0A1C0B",
"I%	c #0C220C",
"J%	c #102C0C",
"K%	c #12350B",
"L%	c #020609",
"M%	c #040C07",
"N%	c #0A1B04",
"O%	c #215E00",
"  . + @ # $ % & * * = - ; > > , ' ) ! ! ~ { ] ^ / ( _ : < [ [ } | 1 2 3 4 5 6 7 8 9 0 a b c d [ ",
"e f g h i j k l 7 m k n o p p q r / s / r } t c b u v w x y z z A B C D E F s G H I J K L K M N ",
"O P Q R S T [ 9 U V t W X Y Y N v Z Z u ` M L  ...+.@.#.$.%.&.*.=.-.;.>.,.'.b ).z ..!.~.{.].*.^.",
"/.(._.w :.` <.[.[.}.|.1.2.3.3.$.@.4.5.#.6.&.7.8.9.&.*.0.].a.b.c.d.e.f.g.h.@.+.@.$.7.i.j.k.l.m.n.",
"o.p.q.r.s.M t.u.w |.v.w.x.y.y.z.~.~.A.B.C.D.D.E.~.&.F.F.0.G.H.I.J.J.K.c.d.b.L.{.z.E.M.N.O.P.Q.R.",
"S.T.U.V.z N W.X.Y.|.v.Z.`. +.+{.{.++@+H.M.D.E.0.#+ .L L 4.$+F.~.i.d.j.k.Q.Q.%+M.&+.+*+=+-+;+R.l.",
">+,+'+)+Y.).!+~+b {+]+1.^+`.x.*.7.7./+~.*.^.#.(+W.b c c !+u x _+ .:+<+[+}+R.l.b.|+1+2+3+4+=+I.c.",
"5+6+7+8+).u S R d S Y.9+Z.0+0+^.$.@.a+b+x Z c+} d+8 e+e+f+s d+G g+[.h+i+j+{.B.~.3.k+0+*+l+m+D.i.",
"n+o+p+q+` W.b r+[ H <.s+#+&.t+#+L x c+V f+u+7 v+6 6 ~ ) w+) ~ ) w+x+y+U a y L ..z+w.x.3+m+m+i.z.",
"A+B+C+I :.N !+r+D+} E+F++.!.#+b+Z G+H+v+I+J+J+* K+! L+M+v+~ N+O+P+Q+R+N+x+S+H Z M 5.*.T+U+T+~.^.",
"V+W+X+Y+F+` b Z+`+r  @u .@(+N c+/ m % * +@@@= L+m 8 #@$@$@#@8 , %@&@Q+*@R+=@-@G b ;@$+>@x.,@#+'@",
")@!@~@{@t.W.a ]@^@/@D+T b c `+u+6 I+= 6 (@e+r _@:@x b+<@..a+z !+< [@x+! R+&@! }@D+Z ;@ . .K z Y.",
"|@1@2@_@u W.3@c d [ } } ^@8 4@+@5@R+(@6@7@N '@!.0.a.n.%+R.}+b.&.8@` 7@d+(@! ! x+/ d Z W.W.}.:@T ",
"9@0@a@g+).N N N x u b@c@s d@Q+e@f@%@^@N $.B.I.R.g@h@i@j@k@i@l@}+i.t+'@u G m@7 m@s < T S S c+T g+",
"n@o@p@T y a+q@#+!.+.z c+8 N+r@s@I+/ y 7.J.t@u@v@w@x@y@z@y@w@A@B@C@y.^.L Z q d+d+`+g+c+S :@S c T ",
"5@I+^ !+a+6.7.L.M.++#.!+D@= 5@K+k u *.E@F@G@H@G@I@I@i@J@K@L@=+T+M@>@N@5._+<.7@T 7@b u O@x x t.Y.",
"P@Q@R@W.$.{.M.N.L@J.^.3@}@O+J+(@H @.J.i@y@S@G@T@g@U@V@b.B.&.W@X@Y@Y@a+Z@b+:.N x `@_+(+ #+.+.q@'@",
".#+#@#J &.b.}+##$#k.:+%#v+Q+K+8 t.].&#x@*#=#-#;#D.&.@.s.`@<.>#,#]@>#:@Y.`@M K a+..$+^.'#.+ +~.&.",
")#6+!#~#z.I.N.##{#c.'@/@K+r@& r K D.]#k@^#/#t@i.+.W.d ^@r s D@}@m@k [@D+c N  .$.(#B.b._#:#<#j.d.",
">+[#}#|#i.}+N.1#:#2#F+3#4#5#! [ @.I.]#G@/#l@c.6#3@/@m@l k }@u+(@) 6 ) m@q t.@.9.@+J.Q.7#A@8#9#P.",
"0#a#b#c#c.N.N.:#C@t+<.x+r@5#) %#:+J.d#e#T@N.9.` /@x+' }@/@D+$@f#7 ! g#d@6@t.h#i.}+t@e#i#j#k#l#v@",
"m#n#o#&.J.U@k.K.i.6#E+' r@r@' a p#J.&#q#E@i.q@%#}@' u+} W.K b+).$@m ! 4@r#X 1+4+L@T@s#t#u#u#u#u#",
"v#w#x 7.}+R.j.D.7.x# @w+r@5@(@a :+c.R.y#D.:+z#`+l l G x 6.i.i.N@O@#@' ' A#J x.<#d#J@u#k@k@k@k@k@",
"u+#@x *.B#}+C#z.$.N ( ! r@D#(@7@@.E.M.E.^..@%#[@m@s E++.C.E@Q.b...H }@, E#F# +1#G#w@=#=#x@k@u#u#",
"m@#@W.^.b.H#&+j+I#3@f+O+5#D#; R X@1+].^.L !+`+D@8 < ` p#j.d#u@k.^.b f+}@V M {.U@J#k@z@y@x@w@k#K#",
"-@/ <.$+B.L#`.M#N#%#}@R+5#D#; ]@O#w.6...x _@s 3#S+P#Q#z.;#v@R#q#z.z#/@D@} .@{.U@F@k@y@y@u#l#S#7#",
"T#U#b 4.7.|+V#W#X# @l P+s@Y#Z#]@`# $#+(+u } 8 .$6@+$q@D.d#@$#$s#c.$$^@%$< .@{.R.h@w@x@@$s#e#&$*$",
"x+8 c a+F.t+#+s.u q , P+s@+@, d .@#.6#(+}.< %$}@s E+..d.v@=$-$y@k.;$< >$,$9+.+:#g@F@/#t#'$q#:#U+",
"' k T (+!.!...z !+`+)$!$s@+@l %#s.#+h# .`@7@/@D@8  @b+i.T@~${$k@j.]$q ^$/$i+($<#Q.g@e#v@u@E@H#M@",
"w+p@t _+#.+.b+Y.7@/@d@*@5#Q+, %#K 6.p##+x#` _$d+^ r }.!.J.K@l#:$7.W.<$^$[$W@3+<#k.R.t@d#}$y#L#,@",
"6 l g+y ..L y !+_@s |$1$2$5@(@H b+6.3$p#h# .W.c@f#f+c@y 6.++@+7.s.d s r u.j+m+4$K.c.5$;#N.d.~.$.",
"6$7 c@`@ #(+x :@g+s ) r@7$8$L+} _+:+<+8.8.^.K :@9$f+#@c+`@b+(+N c ^@r t K {.5$5$D.0$[+j.B#@+*.#+",
"K+v+V `@ #v.y Z d d+w+a$7$5#% r `@h#z.0$C.~.#.`@t b$#@} c$c+T  @< [ S _+d$I.e$5$E.8.f$D.M.i.*.h#",
"P+~ G `@4.4.K x :@^@7 Q+g$h$O+f+<.i$z.C.[+].$.b+j$c+g+g+k$D+G `+H v  .7.I.Q.;#c.~.p#3$2#L.E.*.:+",
"P+) $@z #+!.+.b+O@t k = a$l$P+,  @$$p#B.E.0.$...(+z m$}.:@d [ H n$+.2#y#:$t@}+E.^.#+:+<+B.{.*.:+",
"O+(@_@ .9.0.:+ .z S d+' K+4#o$N+8 a '@F.7.^.$.$.!.!.p$4.v.z x N q@f$N.q#t@l.i.^.+...#.t+~.7.F.$.",
") k W q$r$($t++..@u < 8 v+K+4#*@6 / Z v.#.#+h#t+z.a.L.a.A.*.6.6.z.B#Q.Q.m.{.$+s$t$`#1.Z.3.k+ $1.",
"m d+X f.u$3+&.@.b+W.%#^@e+w+*@5#5@~ #@S `@K i$p#2#M.J.l.}+B#D.i.C.I.I.L.^.K Y.v$W h+O#w$ $x$s$F#",
"p@G :.z.y$0$p#q@M W.a H r u+O+s@z$D#L+f+[ <.A$B$9.L.I.N.N.}+d.++~.&.$.K u g+G C$R D$.@ ...v.|.}.",
"u+/@` &.i.{.!. .y u a c+[ i v++@e@e@5@= , /@P#E$q@p#z.i.i.B.t+@.s.t.E+^@e+(@7 F$G$<.M a+L ;@j$b@",
"' D@a 4.&.*.$+'@N <.c c+H $@k ~ +@s@2$s@P+d@^$H$n$M '@q@'@s.z#S D+f+I$%@K+* J$u+D+!+y b+_+x :@c@",
"= K$L$M$N$O$#. .z <.c T H D+d+}@w+P+P$Q$R$R+d@S$/@[ d %#H q 6@k ' N+&@!$Q+O+v+D@c@b T$U$V$W$X$Y$",
"4#Z$`$ %.%+%@%B$K z#[._@< ^@`+/@D@w+Q+h$g$r@R+#%v+x+l l m ' ) ! K+R+$%& %%&%f+^@d {@*%=%-%;%>%,%",
"2$'%)%!%~%{%]%:+@.:.^%Z+`+r ^@< ^@8 w+J+4#a$*@!$* = % % 6$/%N+! ! %@d@}@(%_%c+a c :%<%[%}%|%1%2%",
"3%4%5%6%7%8%9%p##+s+0%p r r < 7@c c@s 7 %@a%g##%) ' 7 m m m }@3#D@[@/@g+b%c%`@t.a d%e%f%g%h%i%j%",
"k%|@l%m%n%o%p%:+@.M q+p $@D+T <.W.!+g+d+D@.$3#s `+H b@q%r%r%u u !+a c r%s%t$z t.E+t%u%v%w%x%y%z%",
"A%B%C%D%>.E%M#6#'@N S g+c@_@b t.N Y.c g+^@< H$<.:.+.^.(#/+/+7.p#+..@O@{+O@x x u _$E#F%G%H%I%J%K%",
"L%M%N%g+N  .@.+.K t.S _@g+T Z x y t.:@d g+%#3@:.B$7.@+O%m.m.c.i.t+ .`@{+j$Y.).!+H r 3#, u+d+T O@"};
